<?xml version="1.0" standalone="no"?><!DOCTYPE svg PUBLIC "-//W3C//DTD SVG 1.1//EN" "http://www.w3.org/Graphics/SVG/1.1/DTD/svg11.dtd"><svg t="1555654958846" class="icon" style="" viewBox="0 0 1024 1024" version="1.1" xmlns="http://www.w3.org/2000/svg" p-id="996" xmlns:xlink="http://www.w3.org/1999/xlink" width="200" height="200"><defs><style type="text/css"></style></defs><path d="M507.13626199 110.12457303m-106.27630509 0a1.66056726 1.66056726 0 1 0 212.55261019 0 1.66056726 1.66056726 0 1 0-212.55261019 0ZM578.49528379 263.44120991L440.20541956 263.44120991c-46.67736625 0-88.63618068 16.98678647-118.47194668 44.13660759l0 196.14656858 0 53.06555944 0 24.8994349 103.95332577 0 22.3586762 321.95041881L575.156001 903.63979923l21.63274515-321.95041881 105.47778097 0L702.26652712 570.21966987 702.26652712 498.64286876 702.26652712 312.73192792C672.21298181 282.60578952 628.00378112 263.44120991 578.49528379 263.44120991zM673.37447148 708.65472031l0 56.04187673c117.81860873 17.4223451 198.75992034 53.57371119 198.75992036 95.31474632 0 59.01819402-161.22928527 106.71186373-360.06179874 106.71186374s-360.13439184-47.69366971-360.13439184-106.71186374c0-41.88622136 81.52205645-78.11018053 200.13918934-95.60511873l0-55.96928362c-196.94509273 21.34237275-338.79201909 81.08649782-338.79201908 151.57440235C13.14018531 948.42974475 236.58176123 1020.15173207 512 1020.15173207c275.41823877 0 498.78722157-71.72198733 498.78722157-160.06779559C1010.78722157 789.74121813 869.59363317 730.21487238 673.37447148 708.65472031z" p-id="997"></path></svg>