<?xml version="1.0" standalone="no"?><!DOCTYPE svg PUBLIC "-//W3C//DTD SVG 1.1//EN" "http://www.w3.org/Graphics/SVG/1.1/DTD/svg11.dtd"><svg t="1555654686869" class="icon" style="" viewBox="0 0 1024 1024" version="1.1" xmlns="http://www.w3.org/2000/svg" p-id="837" xmlns:xlink="http://www.w3.org/1999/xlink" width="200" height="200"><defs><style type="text/css"></style></defs><path d="M677.33333333 686.72c-75.392 0-136.736-60.704-136.736-135.328 0-74.656 61.344-135.36 136.736-135.36s136.736 60.736 136.736 135.36c0 74.624-61.344 135.328-136.736 135.328zM677.33333333 480c-40.128 0-72.736 32-72.736 71.36 0 39.328 32.64 71.328 72.736 71.328s72.736-32 72.736-71.328C750.06933333 512 717.46133333 480 677.33333333 480z" fill="#2c2c2c" p-id="838"></path><path d="M710.04444444 985.31555555c-206.11072 0-245.46872889-63.35146667-252.60487112-82.75740444a36.33607111 36.33607111 0 0 1-2.25735111-12.59747556c0-123.86304 95.31847111-251.98592 254.86222223-251.98592s254.86222222 128.12288 254.86222222 251.98592c0 4.29624889-0.76458667 8.51968-2.25735112 12.59747556C955.51317332 921.96408889 916.19157332 985.31555555 710.04444444 985.31555555z m-181.5711289-107.51544888c12.77952 10.19448889 56.47018667 34.69767111 181.5711289 34.69767111 125.13735111 0 168.79160889-24.50318222 181.53472-34.69767111-5.71619555-73.14545778-62.65969778-167.00757333-181.53472-167.00757334s-175.81852445 93.86211555-181.5711289 167.00757334z" fill="#2c2c2c" p-id="839"></path><path d="M201.31081482 161.42609067h155.34459259v77.6722963H201.31081482zM201.31081482 472.11527585h155.34459259v77.6722963H201.31081482z" fill="#2c2c2c" p-id="840"></path><path d="M595.07002784 559.76846222a127.11071289 125.40192237 0 1 0 254.22142578 0 127.11071289 125.40192237 0 1 0-254.22142578 0Z" fill="#2c2c2c" p-id="841"></path><path d="M706.18074075 724.00653275c-91.49796503 0-165.94686103-73.63333689-165.94686105-164.23807053s74.448896-164.23807052 165.94686105-164.23807052 165.94686103 73.67217303 165.94686103 164.23807052-74.448896 164.23807052-165.94686103 164.23807053z m0-250.80384475c-48.70052978 0-88.27456475 38.83614815-88.27456475 86.56577422s39.61287111 86.56577422 88.27456475 86.56577423 88.27456475-38.83614815 88.27456473-86.56577423-39.57403497-86.56577422-88.27456473-86.56577422z" fill="#2c2c2c" p-id="842"></path><path d="M722.18074074 685.20922075c156.78153008 0 233.01688889 128.66415882 233.01688888 229.94883317 0 0-23.1463443 62.87572385-233.01688888 62.87572386" fill="#2c2c2c" p-id="843"></path><path d="M706.18074075 1016.86992592a38.83614815 38.83614815 0 1 1 0-77.67229629c133.47984118 0 180.04438282-26.1367277 193.63703466-37.01084918-6.09727525-78.02182163-66.83701097-178.14141155-193.63703466-178.14141156a38.83614815 38.83614815 0 1 1 0-77.6722963c170.18000118 0 271.85303703 136.66440533 271.85303703 268.78498133 0 4.58266548-0.81555911 9.08765867-2.40784119 13.43730726C968.01405155 949.29502815 926.07101155 1016.86992592 706.18074075 1016.86992592z" fill="#2c2c2c" p-id="844"></path><path d="M727.51407407 685.20922075c-156.78153008 0-233.01688889 128.66415882-233.0168889 229.94883317 0 0 23.1463443 62.87572385 233.0168889 62.87572386" fill="#2c2c2c" p-id="845"></path><path d="M700.84740742 1016.86992592c-219.85143467 0-261.83331082-67.57489778-269.44519586-88.27456474a38.75847585 38.75847585 0 0 1-2.40784119-13.43730726c0-132.120576 101.67303585-268.78498133 271.85303705-268.78498133a38.83614815 38.83614815 0 1 1 0 77.6722963c-126.8000237 0-187.53975941 100.11958992-193.67587083 178.14141156 13.631488 10.87412148 60.23486578 37.01084918 193.67587083 37.01084918a38.83614815 38.83614815 0 1 1 0 77.67229629z" fill="#2c2c2c" p-id="846"></path><path d="M896 616.384a11.84 11.84 0 0 1-0.672-0.736c0.32-1.056 0.416-2.144 0.672-3.264v4z" fill="#B3B5B6" p-id="847"></path><path d="M432.89076622 627.45986845c0.89323141 3.41758103 1.28159289 6.91283437 2.33016889 10.3304154a384.7497197 384.7497197 0 0 0-54.40944356 67.3418809H84.80237037v-77.6722963h348.08839585z" fill="#2c2c2c" p-id="848"></path><path d="M565.28319525 316.77068325a283.1931923 283.1931923 0 0 0-86.8764634 77.6722963H84.80237037v-77.6722963h480.48082488z" fill="#2c2c2c" p-id="849"></path><path d="M84.80237037 6.08149808h854.39525926a38.83614815 38.83614815 0 0 1 38.83614815 38.83614814v439.54752475a277.40660622 277.40660622 0 0 0-29.94267023-68.85649067l-0.93206755-1.63111822a281.79509097 281.79509097 0 0 0-46.75872237-57.55517156V83.75379437H123.63851852v854.39525926h194.18074073v4.69917392l9.55369245 26.02021927c2.64085808 7.2623597 6.09727525 14.64122785 10.01972622 22.05893215l1.048576 1.98064355c4.1166317 7.65072118 8.97115022 15.34027852 14.680064 22.9133274H84.80237037a38.83614815 38.83614815 0 0 1-38.83614815-38.83614814v-932.06755556a38.83614815 38.83614815 0 0 1 38.83614815-38.83614814z" fill="#2c2c2c" p-id="850"></path></svg>