<?xml version="1.0" standalone="no"?><!DOCTYPE svg PUBLIC "-//W3C//DTD SVG 1.1//EN" "http://www.w3.org/Graphics/SVG/1.1/DTD/svg11.dtd"><svg t="1555654030385" class="icon" style="" viewBox="0 0 1024 1024" version="1.1" xmlns="http://www.w3.org/2000/svg" p-id="723" xmlns:xlink="http://www.w3.org/1999/xlink" width="200" height="200"><defs><style type="text/css"></style></defs><path d="M1014.57576225 202.05707421c-206.37414845 0-308.92505082-77.86743455-383.86609486-134.74119801-43.5141546-33.08093625-77.86743455-59.16398214-118.07349553-59.16398215-38.67924855 0-68.07038805 24.68346782-105.22282415 55.85588851-69.46996613 58.40057592-164.51404066 138.17652603-396.84400062 138.17652602-4.96214042 0-6.74342161 1.01787496-6.99789038 1.52681247-0.38170311 0.63617186-1.65404681 4.7076717 6.99789038 19.9757961 6.48895288 11.45109332 16.6677025 25.82857715 27.35538958 41.09670157 25.57410839 36.26179551 92.37215276 152.68124422 96.69812135 186.14388359 0 0 94.15343395-116.16497997 383.61162611-113.87476133 249.25213121-3.18085927 344.16897137 105.98623038 356.8924084 109.67602711 4.58043732-37.27967047 63.6171851-155.09869725 101.02408992-192.37836772 12.72343702-12.59620265 24.68346782-24.55623344 32.95370188-34.22604558 9.54257777-11.0693902 11.32385895-15.7770619 11.57832768-17.30387435-0.8906406-0.38170311-2.67192177-0.76340622-6.10724976-0.76340623z m-450.15520172 88.04618417c-24.42899908 15.14089005-48.47629505 25.06517093-49.49417002 25.44687404l-2.5446874 1.01787497-2.54468741-1.01787497c-1.01787496-0.38170311-25.06517093-10.30598399-49.49417001-25.44687404-34.22604557-21.12090546-51.65715431-41.47840467-51.65715427-60.56356021v-86.64660608h206.75585155l0.63617184 86.64660608c0 18.95792116-17.30387436 39.44265476-51.65715428 60.56356021z" p-id="724"></path><path d="M892.43076686 532.73920235l-4.58043732-1.52681245v-10.56045273c0-8.65193717-3.94426547-12.59620265-9.4153434-18.06728055l-1.90851555-1.90851557v-2.79915614c0-5.72554666-1.78128119-11.70556205-3.30809362-17.0494056-1.2723437-4.07149986-2.1629843-7.50682785-2.41745304-10.56045274h-15.26812442l11.45109333-11.45109331c2.54468739-2.54468739 5.59831228-5.59831228 7.50682783-8.27023406-27.73709269-8.90640592-147.71910379-43.00521713-367.83456423-43.00521713s-340.09747151 34.09881122-367.8345642 43.00521713c1.90851556 2.67192177 4.96214042 5.72554666 7.50682783 8.27023406l1.90851556 1.90851556v10.05151524l-0.76340622 1.39957807c-4.96214042 9.92428088-4.96214042 20.23026486-4.96214045 31.1724207v2.79915614l-1.90851555 2.03574992c-5.47107792 5.47107792-9.41534338 9.41534338-9.41534339 18.06728057v10.56045273l-4.58043733 1.52681244c-49.1124669 16.41323375-80.92105945 65.39846629-80.92105943 124.81691716 0 37.27967047 23.28388974 67.17974746 42.87798274 85.62873114 24.68346782 23.41112411 57.25546659 41.73287343 89.19129351 50.51204495l3.30809362 0.8906406 1.14510934 3.18085925c30.66348322 82.70234061 101.66026178 134.10502618 155.86210347 162.60552511 65.01676317 34.22604557 132.95991685 49.87587312 168.71277488 49.87587311 35.62562366 0 103.6960117-15.64982755 168.71277488-49.87587311C729.6980074 937.47173392 800.82202033 886.06904836 831.35826918 803.49394211l1.14510932-3.18085926 3.30809364-0.89064059c30.53624885-8.39746842 63.87165384-27.99156144 89.06405914-52.54779489 27.60985834-26.8464521 42.87798275-56.61929474 42.87798274-83.59298121v-0.50893748c5.08937481-62.09037264-24.42899908-113.11135511-75.32274716-130.03352633z m-85.88319988-7.37959348S663.40890052 599.79171543 512 599.79171543s-294.54756698-74.43210655-294.54756698-74.43210656V482.73609486s174.31108716-24.81070219 294.54756698-24.81070218S806.54756698 482.73609486 806.54756698 482.73609486v42.62351401z" p-id="725"></path></svg>